<svg width="24" height="24" viewBox="0 0 24 24" fill="none" xmlns="http://www.w3.org/2000/svg">
<path d="M2.4 24C1.74 24 1.175 23.765 0.705 23.295C0.235 22.825 0 22.26 0 21.6V8.4C0 7.74 0.235 7.175 0.705 6.705C1.175 6.235 1.74 6 2.4 6H8.4V2.4C8.4 1.74 8.635 1.175 9.105 0.705C9.575 0.235 10.14 0 10.8 0H13.2C13.86 0 14.425 0.235 14.895 0.705C15.365 1.175 15.6 1.74 15.6 2.4V6H21.6C22.26 6 22.825 6.235 23.295 6.705C23.765 7.175 24 7.74 24 8.4V21.6C24 22.26 23.765 22.825 23.295 23.295C22.825 23.765 22.26 24 21.6 24H2.4ZM2.4 21.6H21.6V8.4H15.6C15.6 9.06 15.365 9.625 14.895 10.095C14.425 10.565 13.86 10.8 13.2 10.8H10.8C10.14 10.8 9.575 10.565 9.105 10.095C8.635 9.625 8.4 9.06 8.4 8.4H2.4V21.6ZM4.8 19.2H12V18.66C12 18.32 11.905 18.005 11.715 17.715C11.525 17.425 11.26 17.2 10.92 17.04C10.52 16.86 10.115 16.725 9.705 16.635C9.295 16.545 8.86 16.5 8.4 16.5C7.94 16.5 7.505 16.545 7.095 16.635C6.685 16.725 6.28 16.86 5.88 17.04C5.54 17.2 5.275 17.425 5.085 17.715C4.895 18.005 4.8 18.32 4.8 18.66V19.2ZM14.4 17.4H19.2V15.6H14.4V17.4ZM8.4 15.6C8.9 15.6 9.325 15.425 9.675 15.075C10.025 14.725 10.2 14.3 10.2 13.8C10.2 13.3 10.025 12.875 9.675 12.525C9.325 12.175 8.9 12 8.4 12C7.9 12 7.475 12.175 7.125 12.525C6.775 12.875 6.6 13.3 6.6 13.8C6.6 14.3 6.775 14.725 7.125 15.075C7.475 15.425 7.9 15.6 8.4 15.6ZM14.4 13.8H19.2V12H14.4V13.8ZM10.8 8.4H13.2V2.4H10.8V8.4Z" fill="white"/>
</svg>
