<svg width="31" height="24" viewBox="0 0 31 24" fill="none" xmlns="http://www.w3.org/2000/svg">
<path d="M2.4502 24C1.8502 24 1.3252 23.775 0.875195 23.325C0.425195 22.875 0.200195 22.35 0.200195 21.75V2.25C0.200195 1.65 0.425195 1.125 0.875195 0.675C1.3252 0.225 1.8502 0 2.4502 0H27.9502C28.5502 0 29.0752 0.225 29.5252 0.675C29.9752 1.125 30.2002 1.65 30.2002 2.25V21.75C30.2002 22.35 29.9752 22.875 29.5252 23.325C29.0752 23.775 28.5502 24 27.9502 24H2.4502ZM15.2002 12.675L2.4502 4.3125V21.75H27.9502V4.3125L15.2002 12.675ZM15.2002 10.425L27.8002 2.25H2.6377L15.2002 10.425ZM2.4502 4.3125V2.25V21.75V4.3125Z" fill="white"/>
</svg>
