<svg width="24" height="24" viewBox="0 0 24 24" fill="none" xmlns="http://www.w3.org/2000/svg">
<path d="M8.56667 15.4333V8.6H15.4V15.4333H8.56667ZM10.5667 13.4333H13.4V10.6H10.5667V13.4333ZM8 24V21.3333H4.66667C4.13333 21.3333 3.66667 21.1333 3.26667 20.7333C2.86667 20.3333 2.66667 19.8667 2.66667 19.3333V16H0V14H2.66667V9.86667H0V7.86667H2.66667V4.53333C2.66667 4 2.86667 3.53333 3.26667 3.13333C3.66667 2.73333 4.13333 2.53333 4.66667 2.53333H8V0H10V2.53333H14.1333V0H16.1333V2.53333H19.4667C20 2.53333 20.4667 2.73333 20.8667 3.13333C21.2667 3.53333 21.4667 4 21.4667 4.53333V7.86667H24V9.86667H21.4667V14H24V16H21.4667V19.3333C21.4667 19.8667 21.2667 20.3333 20.8667 20.7333C20.4667 21.1333 20 21.3333 19.4667 21.3333H16.1333V24H14.1333V21.3333H10V24H8ZM19.4667 19.3333V4.53333H4.66667V19.3333H19.4667Z" fill="white"/>
</svg>
