<svg width="26" height="26" viewBox="0 0 26 26" fill="none" xmlns="http://www.w3.org/2000/svg">
<path d="M23.9287 14.2198L26 13L23.9287 11.7802C22.8226 11.128 22.4423 9.711 23.075 8.593L24.2591 6.5L21.8541 6.47833C20.5703 6.4675 19.5325 5.42967 19.5217 4.14592L19.5 1.742L17.407 2.92608C16.2901 3.55767 14.872 3.1785 14.2209 2.07242L13 0L11.7791 2.07242C11.1269 3.1785 9.70992 3.55875 8.593 2.92608L6.5 1.742L6.47833 4.14592C6.4675 5.42967 5.42967 6.4675 4.14592 6.47833L1.74092 6.5L2.925 8.593C3.55767 9.711 3.17742 11.128 2.07133 11.7802L0 13L2.07133 14.2198C3.17742 14.872 3.55767 16.289 2.925 17.407L1.74092 19.5L4.14592 19.5217C5.42967 19.5325 6.4675 20.5703 6.47833 21.8541L6.5 24.258L8.593 23.0739C9.70992 22.4423 11.128 22.8215 11.7791 23.9276L13 26L14.2209 23.9276C14.8731 22.8215 16.2901 22.4412 17.407 23.0739L19.5 24.258L19.5217 21.8541C19.5336 20.5703 20.5714 19.5325 21.8541 19.5217L24.2591 19.5L23.075 17.407C22.4423 16.2901 22.8215 14.872 23.9287 14.2198ZM12.9686 21.6667C8.19 21.6667 4.30192 17.7786 4.30192 13C4.30192 8.22142 8.18892 4.33333 12.9686 4.33333C17.7483 4.33333 21.6353 8.22142 21.6353 13C21.6353 17.7786 17.7472 21.6667 12.9686 21.6667ZM13 19.5C9.41092 19.5 6.5 16.5891 6.5 13C6.5 9.41092 9.41092 6.5 13 6.5V19.5Z" fill="#22282B"/>
</svg>
